<svg xmlns="http://www.w3.org/2000/svg" width="1600" height="900" viewBox="0 0 1600 900" role="img" aria-label="RETROCADE neon cyber arcade grid background"><defs><radialGradient id="sky" cx="50%" cy="20%" r="78%"><stop offset="0" stop-color="#173744"/><stop offset="0.38" stop-color="#090917"/><stop offset="0.72" stop-color="#020204"/><stop offset="1" stop-color="#000"/></radialGradient><linearGradient id="horizon" x1="0" x2="1"><stop stop-color="#00ffcc"/><stop offset="0.5" stop-color="#ff2bd6"/><stop offset="1" stop-color="#7cff6b"/></linearGradient><filter id="blur"><feGaussianBlur stdDeviation="10"/></filter></defs><rect width="1600" height="900" fill="url(#sky)"/><circle cx="350" cy="180" r="150" fill="#00ffcc" opacity="0.12" filter="url(#blur)"/><circle cx="1220" cy="185" r="210" fill="#ff2bd6" opacity="0.12" filter="url(#blur)"/><path d="M0 510H1600" stroke="#ffe66d" stroke-width="2" opacity="0.35"/><g stroke="url(#horizon)" stroke-width="2" opacity="0.42"><path d="M0 610H1600M0 660H1600M0 710H1600M0 760H1600M0 810H1600M0 860H1600"/><path d="M800 510L0 900M800 510L1600 900M700 510L420 900M900 510L1180 900M600 510L160 900M1000 510L1440 900M500 510L0 820M1100 510L1600 820"/></g><g opacity="0.16"><rect x="120" y="150" width="190" height="14" rx="7" fill="#00ffcc"/><rect x="1240" y="280" width="230" height="14" rx="7" fill="#ff2bd6"/><rect x="560" y="90" width="480" height="10" rx="5" fill="#7cff6b"/></g><g opacity="0.2" stroke="#fff" stroke-width="1"><path d="M0 0H1600M0 90H1600M0 180H1600M0 270H1600M0 360H1600M0 450H1600"/></g></svg>