<svg xmlns="http://www.w3.org/2000/svg" width="1600" height="900" viewBox="0 0 1600 900"><defs><linearGradient id="v" x1="0" x2="0" y1="0" y2="1"><stop offset="0" stop-color="#ffffff" stop-opacity="0.08"/><stop offset="1" stop-color="#000000" stop-opacity="0.22"/></linearGradient></defs><rect width="1600" height="900" fill="url(#v)"/><g opacity="0.14"><rect width="1600" height="2" y="20" fill="#00ffcc"/><rect width="1600" height="2" y="60" fill="#ff2bd6"/><rect width="1600" height="2" y="100" fill="#7cff6b"/><rect width="1600" height="2" y="140" fill="#00ffcc"/><rect width="1600" height="2" y="180" fill="#ff2bd6"/><rect width="1600" height="2" y="220" fill="#7cff6b"/><rect width="1600" height="2" y="260" fill="#00ffcc"/><rect width="1600" height="2" y="300" fill="#ff2bd6"/><rect width="1600" height="2" y="340" fill="#7cff6b"/><rect width="1600" height="2" y="380" fill="#00ffcc"/><rect width="1600" height="2" y="420" fill="#ff2bd6"/><rect width="1600" height="2" y="460" fill="#7cff6b"/><rect width="1600" height="2" y="500" fill="#00ffcc"/><rect width="1600" height="2" y="540" fill="#ff2bd6"/><rect width="1600" height="2" y="580" fill="#7cff6b"/><rect width="1600" height="2" y="620" fill="#00ffcc"/><rect width="1600" height="2" y="660" fill="#ff2bd6"/><rect width="1600" height="2" y="700" fill="#7cff6b"/><rect width="1600" height="2" y="740" fill="#00ffcc"/><rect width="1600" height="2" y="780" fill="#ff2bd6"/><rect width="1600" height="2" y="820" fill="#7cff6b"/></g></svg>