<svg xmlns="http://www.w3.org/2000/svg" width="960" height="720" viewBox="0 0 960 720" shape-rendering="crispEdges">
  <title>RETROCADE Portable Pixel Sprite Pack</title>
  <desc>Original monochrome handheld-style sprites for RETROCADE cabinets. Palette: deep ink, dark green, light green, pale screen.</desc>
  <defs>
    <style>.ink{fill:#081820}.d{fill:#346856}.m{fill:#88c070}.l{fill:#e0f8d0}.none{fill:none;stroke:#346856;stroke-width:4}.label{font:700 16px monospace;fill:#e0f8d0}</style>
  </defs>
  <rect width="960" height="720" class="ink"/>
  <g transform="translate(24 24)"><text class="label" x="0" y="0">RETROCADE PORTABLE PIXEL SPRITE PACK</text></g>
  <g id="palette" transform="translate(24 44)"><rect class="ink" x="0" y="0" width="40" height="40"/><rect class="d" x="48" y="0" width="40" height="40"/><rect class="m" x="96" y="0" width="40" height="40"/><rect class="l" x="144" y="0" width="40" height="40"/><text class="label" x="200" y="26">#081820 #346856 #88c070 #e0f8d0</text></g>
  <g id="snake" transform="translate(24 110)"><text class="label" x="0" y="-12">SNAKE</text><rect class="m" x="0" y="0" width="32" height="32"/><rect class="d" x="8" y="8" width="8" height="8"/><rect class="d" x="24" y="8" width="8" height="8"/><rect class="l" x="48" y="0" width="32" height="32"/><rect class="m" x="56" y="8" width="16" height="16"/><rect class="l" x="96" y="8" width="16" height="16"/></g>
  <g id="breakout" transform="translate(184 110)"><text class="label" x="0" y="-12">BREAKOUT</text><rect class="l" x="0" y="0" width="96" height="16"/><rect class="m" x="0" y="24" width="40" height="16"/><rect class="d" x="48" y="24" width="40" height="16"/><rect class="l" x="104" y="8" width="16" height="16"/></g>
  <g id="invaders" transform="translate(344 110)"><text class="label" x="0" y="-12">INVADERS</text><path class="m" d="M8 8h8v8h8V8h8v8h8v8h8v16h-8v-8H16v8H8V24H0v-8h8z"/><rect class="l" x="12" y="20" width="8" height="8"/><rect class="l" x="32" y="20" width="8" height="8"/><rect class="d" x="72" y="24" width="64" height="16"/><rect class="m" x="88" y="8" width="32" height="16"/></g>
  <g id="space" transform="translate(536 110)"><text class="label" x="0" y="-12">SPACE</text><path class="l" d="M32 0l24 56-24-12-24 12z"/><path class="m" d="M112 0h24v8h16v16h8v24h-8v16h-16v8h-24v-8H96V48h-8V24h8V8h16z"/><rect class="d" x="112" y="24" width="16" height="16"/></g>
  <g id="pong" transform="translate(24 230)"><text class="label" x="0" y="-12">PONG</text><rect class="l" x="0" y="0" width="16" height="96"/><rect class="m" x="96" y="0" width="16" height="96"/><rect class="l" x="52" y="40" width="16" height="16"/></g>
  <g id="claw" transform="translate(184 230)"><text class="label" x="0" y="-12">CLAW</text><rect class="m" x="48" y="0" width="16" height="64"/><rect class="l" x="24" y="64" width="64" height="16"/><rect class="l" x="24" y="80" width="16" height="32"/><rect class="l" x="72" y="80" width="16" height="32"/><rect class="m" x="112" y="72" width="32" height="32"/></g>
  <g id="bubble" transform="translate(344 230)"><text class="label" x="0" y="-12">BUBBLE</text><rect class="l" x="0" y="0" width="32" height="32"/><rect class="m" x="48" y="0" width="32" height="32"/><rect class="d" x="96" y="0" width="32" height="32"/><rect class="m" x="8" y="8" width="8" height="8"/><rect class="l" x="56" y="8" width="8" height="8"/></g>
  <g id="memory" transform="translate(536 230)"><text class="label" x="0" y="-12">MEMORY</text><rect class="d" x="0" y="0" width="64" height="80"/><rect class="m" x="8" y="8" width="48" height="64"/><rect class="l" x="88" y="0" width="64" height="80"/><path class="d" d="M120 16l8 20 20 2-16 12 5 20-17-10-17 10 5-20-16-12 20-2z"/></g>
  <g id="racer" transform="translate(24 380)"><text class="label" x="0" y="-12">RACER</text><rect class="m" x="0" y="0" width="48" height="80"/><rect class="l" x="8" y="8" width="32" height="16"/><rect class="d" x="8" y="56" width="32" height="12"/><rect class="l" x="72" y="0" width="48" height="80"/><rect class="d" x="80" y="8" width="32" height="16"/></g>
  <g id="rhythm" transform="translate(184 380)"><text class="label" x="0" y="-12">RHYTHM</text><rect class="l" x="0" y="0" width="64" height="64"/><rect class="m" x="80" y="0" width="64" height="64"/><rect class="d" x="0" y="80" width="64" height="64"/><rect class="m" x="80" y="80" width="64" height="64"/></g>
  <g id="blocks" transform="translate(384 380)"><text class="label" x="0" y="-12">BLOCKS</text><rect class="l" x="0" y="0" width="32" height="32"/><rect class="m" x="32" y="0" width="32" height="32"/><rect class="d" x="64" y="0" width="32" height="32"/><rect class="m" x="0" y="32" width="32" height="32"/><rect class="l" x="32" y="32" width="32" height="32"/></g>
  <g id="frog" transform="translate(536 380)"><text class="label" x="0" y="-12">FROG</text><rect class="m" x="0" y="16" width="48" height="40"/><rect class="l" x="8" y="8" width="8" height="8"/><rect class="l" x="32" y="8" width="8" height="8"/><rect class="d" x="12" y="28" width="8" height="8"/><rect class="d" x="28" y="28" width="8" height="8"/><rect class="l" x="80" y="16" width="80" height="32"/><rect class="d" x="88" y="24" width="64" height="8"/></g>
  <g id="tiles" transform="translate(24 570)"><text class="label" x="0" y="-12">TILES + UI</text><rect class="d" x="0" y="0" width="32" height="32"/><rect class="m" x="40" y="0" width="32" height="32"/><rect class="l" x="80" y="0" width="32" height="32"/><rect class="none" x="136" y="0" width="128" height="48"/><rect class="m" x="144" y="8" width="112" height="32"/><rect class="l" x="288" y="0" width="96" height="32"/><rect class="d" x="296" y="8" width="80" height="16"/></g>
</svg>
