<svg xmlns="http://www.w3.org/2000/svg" viewBox="0 0 760 900"><defs><linearGradient id="cab" x1="0" y1="0" x2="1" y2="1"><stop stop-color="#22243f"/><stop offset="1" stop-color="#070711"/></linearGradient><linearGradient id="rain" x1="0" x2="1"><stop stop-color="#ff3b6b"/><stop offset=".2" stop-color="#ffb42b"/><stop offset=".4" stop-color="#ffe76b"/><stop offset=".6" stop-color="#67ff9e"/><stop offset=".8" stop-color="#55ddff"/><stop offset="1" stop-color="#ba67ff"/></linearGradient></defs><path d="M170 35h420l56 126-42 633H156l-42-633z" fill="url(#cab)" stroke="#66e8ff" stroke-width="8"/><path d="M144 162h472l-25 335H169z" fill="#03040a" stroke="#ff4fd8" stroke-width="7"/><rect x="178" y="194" width="404" height="264" rx="18" fill="#090b18" stroke="#ffe66b" stroke-width="4"/><circle cx="278" cy="296" r="54" fill="#ff4fd8"/><circle cx="482" cy="296" r="54" fill="#66e8ff"/><path d="M278 240v112M222 296h112M442 296h80" stroke="#fff" stroke-width="16" stroke-linecap="round"/><path d="M173 522h414l-28 150H201z" fill="#15152a" stroke="#66e8ff" stroke-width="5"/><circle cx="276" cy="585" r="38" fill="#ff3b6b" stroke="#fff" stroke-width="6"/><circle cx="384" cy="585" r="30" fill="#ffe66b" stroke="#fff" stroke-width="6"/><circle cx="477" cy="585" r="30" fill="#67ff9e" stroke="#fff" stroke-width="6"/><path d="M230 714h300M220 760h320" stroke="url(#rain)" stroke-width="20" stroke-linecap="round"/><rect x="186" y="59" width="388" height="90" rx="22" fill="#06060c" stroke="url(#rain)" stroke-width="7"/><text x="380" y="119" text-anchor="middle" font-family="Arial Black,sans-serif" font-size="52" fill="#fff" letter-spacing="4">RETROCADE</text></svg>