<svg xmlns="http://www.w3.org/2000/svg" viewBox="0 0 1600 1000"><defs><linearGradient id="sky" x1="0" y1="0" x2="0" y2="1"><stop stop-color="#160522"/><stop offset=".55" stop-color="#070711"/><stop offset="1" stop-color="#020204"/></linearGradient><linearGradient id="line" x1="0" x2="1"><stop stop-color="#ff4fd8"/><stop offset=".5" stop-color="#66e8ff"/><stop offset="1" stop-color="#ffe66b"/></linearGradient></defs><rect width="1600" height="1000" fill="url(#sky)"/><circle cx="260" cy="170" r="220" fill="#ff4fd8" opacity=".10"/><circle cx="1340" cy="120" r="260" fill="#66e8ff" opacity=".10"/><g stroke="url(#line)" opacity=".24" fill="none"><path d="M0 1000 800 560 1600 1000"/><path d="M180 1000 800 560 1420 1000"/><path d="M360 1000 800 560 1240 1000"/><path d="M540 1000 800 560 1060 1000"/><path d="M720 1000 800 560 880 1000"/><path d="M0 920h1600M0 820h1600M0 730h1600M0 655h1600M0 600h1600"/></g><g fill="#fff" opacity=".35"><circle cx="120" cy="120" r="2"/><circle cx="420" cy="220" r="2"/><circle cx="920" cy="150" r="2"/><circle cx="1480" cy="270" r="2"/><circle cx="1180" cy="330" r="2"/></g></svg>